<?xml version="1.0" standalone="no"?>
<!DOCTYPE svg PUBLIC "-//W3C//DTD SVG 20010904//EN"
 "http://www.w3.org/TR/2001/REC-SVG-20010904/DTD/svg10.dtd">
<svg version="1.0" xmlns="http://www.w3.org/2000/svg"
 width="799.000000pt" height="680.000000pt" viewBox="0 0 799.000000 680.000000"
 preserveAspectRatio="xMidYMid meet">

<g transform="translate(0.000000,680.000000) scale(0.100000,-0.100000)"
fill="#000000" stroke="none">
<path d="M5384 5316 c-64 -22 -78 -31 -203 -136 -169 -142 -241 -224 -241
-277 0 -15 -9 -18 -63 -18 -49 0 -74 -6 -114 -27 -48 -25 -57 -26 -115 -17
-35 5 -186 9 -336 8 -259 0 -274 1 -301 20 -16 12 -52 26 -81 33 -28 6 -55 19
-60 29 -5 9 -28 24 -51 33 -36 15 -50 15 -91 6 -27 -7 -65 -9 -84 -5 -31 5
-35 9 -29 28 16 53 17 52 -90 49 -55 -2 -110 0 -121 5 -12 4 -60 45 -108 90
-48 45 -107 97 -133 114 l-47 33 -273 4 c-313 5 -328 3 -415 -75 -69 -61 -112
-87 -199 -122 -97 -39 -202 -61 -287 -61 -80 0 -127 -20 -159 -69 -22 -33 -23
-42 -23 -242 l0 -208 27 -21 c21 -17 35 -20 62 -15 56 11 83 37 166 159 85
126 100 136 173 117 53 -15 58 -34 22 -79 -63 -79 -90 -180 -70 -265 27 -114
101 -215 198 -270 l54 -30 -6 -51 c-16 -124 -24 -262 -19 -309 4 -47 0 -61
-40 -142 -58 -117 -81 -186 -108 -325 -19 -100 -21 -137 -16 -295 4 -131 11
-205 26 -270 30 -132 85 -278 141 -380 63 -113 198 -389 206 -421 l6 -24 -296
0 c-163 0 -296 2 -296 5 0 2 11 21 25 41 47 70 69 203 63 392 -3 109 -7 133
-27 172 -32 63 -113 136 -172 157 -27 10 -52 25 -54 34 -3 9 -19 36 -36 59
-55 75 -175 112 -296 91 -59 -11 -62 -11 -111 20 -89 55 -162 58 -257 12 -27
-14 -64 -39 -82 -56 l-32 -30 -42 18 c-90 41 -192 15 -263 -67 -21 -24 -55
-61 -76 -83 -74 -77 -116 -189 -126 -338 -10 -148 37 -289 110 -323 25 -13 34
-25 42 -60 l10 -44 -275 -2 -276 -3 0 -190 0 -190 1373 -5 1374 -5 50 -90 c98
-175 159 -312 199 -445 66 -222 153 -385 256 -481 64 -60 93 -75 200 -99 137
-32 204 -57 252 -95 65 -52 139 -47 218 15 13 10 40 21 60 24 21 4 85 30 142
57 85 41 117 64 175 122 77 77 125 151 156 243 16 46 20 84 20 195 l0 139 78
77 c79 79 183 159 355 276 l99 67 1379 0 1379 0 0 195 0 195 -295 0 c-289 0
-295 0 -285 19 5 11 10 31 10 46 0 17 7 28 23 34 90 36 144 187 126 355 -15
140 -50 232 -122 313 -99 114 -126 140 -161 157 -44 21 -119 20 -178 -1 l-48
-17 -32 30 c-59 55 -105 76 -177 82 -54 3 -77 0 -119 -18 -28 -12 -56 -28 -62
-35 -8 -9 -40 -11 -123 -7 -98 4 -119 2 -158 -15 -57 -25 -113 -74 -129 -113
-9 -22 -30 -38 -76 -61 -73 -36 -136 -99 -167 -167 -20 -43 -22 -61 -19 -212
3 -184 16 -255 63 -337 l29 -53 -245 0 -245 0 6 28 c24 98 147 308 225 382 48
46 55 92 39 248 -20 194 3 621 41 741 29 96 34 215 15 355 -10 65 -16 119 -14
120 2 2 24 14 49 29 82 47 196 199 229 306 36 114 18 257 -40 319 -11 12 -20
31 -20 44 0 44 75 281 133 423 62 152 64 155 96 155 34 0 118 -42 193 -98 56
-42 171 -92 210 -92 52 0 63 20 66 124 5 116 -12 175 -69 239 -61 70 -105 86
-261 97 -73 6 -320 12 -548 15 -337 4 -423 2 -456 -9z m-2341 -100 c84 -14 90
-17 170 -80 45 -35 98 -80 117 -98 33 -32 37 -33 135 -38 99 -5 100 -5 100
-30 0 -23 6 -26 70 -38 39 -7 91 -11 116 -8 39 4 50 1 68 -18 11 -12 21 -30
21 -39 0 -12 9 -17 30 -17 30 0 103 -31 114 -48 3 -5 63 -7 133 -4 129 4 310
-11 518 -45 116 -19 160 -43 208 -112 31 -45 32 -45 35 -19 3 26 -28 101 -48
113 -21 13 -8 25 28 25 122 -1 299 -120 430 -290 l50 -65 81 -17 c215 -44 381
-191 451 -397 11 -33 20 -67 20 -74 0 -8 -18 -19 -39 -26 -22 -6 -53 -26 -69
-45 l-30 -35 5 -158 c6 -177 -6 -266 -57 -404 -40 -109 -51 -203 -51 -454 1
-164 5 -235 16 -278 22 -85 20 -143 -6 -165 -12 -9 -33 -27 -47 -39 -28 -26
-37 -29 -25 -11 13 22 21 112 11 130 -14 29 -63 48 -120 48 -92 0 -201 -69
-346 -217 -77 -80 -91 -103 -62 -103 14 0 62 40 133 112 119 119 129 126 219
153 46 13 64 15 92 5 50 -16 60 -32 42 -68 -24 -47 -44 -56 -132 -63 -124 -10
-232 -75 -322 -192 -107 -140 -151 -177 -255 -215 -98 -37 -162 -33 -312 17
-225 75 -397 149 -498 215 l-49 31 6 61 c14 142 55 210 156 257 37 17 67 22
163 24 180 3 204 27 233 226 20 139 10 230 -33 308 -42 78 -168 156 -330 206
-80 24 -103 27 -253 27 -148 0 -171 -2 -222 -22 -77 -31 -142 -83 -167 -134
-45 -95 -52 -362 -11 -471 20 -53 23 -56 91 -86 71 -32 186 -61 239 -61 22 0
31 -7 44 -34 21 -45 21 -159 -1 -225 -13 -43 -24 -57 -57 -76 -117 -68 -282
-104 -506 -112 l-165 -5 -75 35 c-210 97 -397 284 -517 517 -36 71 -40 75 -76
78 -33 3 -38 0 -48 -25 -7 -17 -9 -64 -6 -116 5 -95 4 -95 -42 -13 -104 184
-164 459 -136 619 28 164 80 317 157 469 46 90 49 99 39 135 -28 101 -2 394
40 455 59 86 124 160 168 192 67 49 77 45 36 -13 -30 -42 -95 -169 -95 -186 0
-4 28 29 62 72 117 148 244 264 341 313 70 35 -36 8 -178 -45 -30 -12 70 89
150 150 133 101 256 153 395 164 l85 7 -66 12 c-85 16 -128 15 -214 -3 -115
-24 -214 -80 -370 -210 -77 -65 -175 -152 -219 -194 l-78 -76 4 51 c3 28 19
81 36 118 17 36 29 66 26 66 -14 0 -72 -35 -96 -58 -33 -30 -33 -31 -12 37 10
36 30 69 61 102 l46 49 -42 40 c-67 64 -195 119 -280 121 -30 0 -32 2 -16 9
11 5 47 15 80 21 l60 12 -60 12 -60 11 53 13 c45 11 52 16 52 37 0 31 25 92
48 117 9 11 34 31 56 46 21 14 50 34 65 44 24 17 43 18 216 13 105 -3 229 -12
278 -20z m3429 7 c62 -24 113 -62 143 -108 21 -33 25 -50 23 -95 l-3 -55 -43
1 c-33 1 -91 25 -265 112 -122 61 -246 119 -275 129 -45 15 -50 19 -30 25 13
3 110 6 215 7 158 1 200 -2 235 -16z m-929 -358 c32 -8 80 -27 109 -41 28 -14
76 -32 107 -40 31 -8 71 -24 90 -35 33 -20 34 -20 55 -1 24 22 86 45 86 33 0
-5 -7 -14 -15 -21 -26 -21 -16 -31 15 -15 29 15 60 20 60 10 0 -3 -7 -16 -15
-29 -9 -13 -26 -67 -40 -121 -13 -54 -30 -102 -37 -106 -25 -16 -65 -9 -88 16
-30 32 -35 31 -77 -6 -49 -42 -63 -34 -83 46 -10 43 -42 85 -63 85 -9 0 -13
-16 -13 -50 0 -38 -5 -55 -24 -75 -36 -39 -50 -33 -50 24 0 114 -40 227 -105
300 l-37 41 34 0 c18 0 60 -7 91 -15z m-1655 -1921 c60 -42 65 -124 9 -175
-55 -50 -139 -31 -173 39 -23 50 2 123 50 142 34 14 90 11 114 -6z m409 -70
c46 -29 58 -113 23 -157 -47 -60 -141 -56 -180 7 -65 106 53 219 157 150z
m2322 -187 c69 -23 101 -110 82 -228 -16 -98 -56 -139 -136 -139 -86 1 -173
63 -204 146 -33 87 -24 164 24 204 45 37 150 44 234 17z m-5055 -15 c46 -26
68 -76 61 -136 -16 -126 -96 -210 -213 -222 -91 -10 -142 49 -150 174 -8 122
28 185 116 203 54 11 151 2 186 -19z m5542 -40 c9 -20 19 -66 22 -102 6 -91
-18 -145 -84 -190 -27 -19 -64 -46 -82 -62 -51 -44 -109 -34 -127 21 -16 50
67 255 128 320 36 38 81 61 108 54 10 -3 25 -21 35 -41z m-6140 9 c57 -41 108
-122 143 -230 27 -81 27 -125 1 -151 -28 -28 -63 -25 -101 8 -18 15 -53 41
-77 57 -66 44 -85 75 -90 145 -6 80 5 143 29 174 26 33 47 33 95 -3z m1644
-170 c40 -52 65 -91 55 -88 -31 13 -91 -10 -104 -40 -12 -27 -13 -27 -27 -8
-21 29 -34 83 -34 148 0 59 15 107 29 91 4 -5 40 -51 81 -103z m3530 -71 c16
-17 38 -60 50 -96 13 -39 37 -83 61 -110 45 -52 48 -78 18 -141 -54 -111 -168
-115 -253 -10 -29 37 -31 43 -31 125 1 64 7 105 24 155 37 108 79 133 131 77z
m-4222 0 c17 -19 55 -136 68 -212 8 -46 -18 -134 -50 -170 -87 -97 -211 -68
-254 60 -14 40 4 93 37 114 12 7 36 51 57 105 20 53 45 99 57 108 30 21 63 19
85 -5z m-1225 -41 c63 -34 138 -183 123 -244 -10 -39 -50 -75 -83 -75 -32 0
-69 27 -113 84 -22 29 -30 49 -30 80 0 57 18 117 43 144 23 25 30 26 60 11z
m6637 1 c24 -13 40 -69 40 -141 0 -54 -3 -60 -47 -109 -60 -67 -85 -77 -128
-50 -18 11 -36 27 -39 36 -22 58 18 177 82 241 34 34 59 40 92 23z m-4363
-275 c102 -87 176 -125 245 -125 l55 0 -39 -192 c-21 -105 -39 -193 -42 -195
-6 -7 -150 108 -219 176 -131 126 -181 218 -213 391 -37 199 -38 197 59 94 45
-48 114 -115 154 -149z m2505 174 c23 -12 65 -11 73 1 3 6 10 10 15 10 5 0 -4
-20 -20 -44 -45 -67 -87 -156 -107 -227 -19 -70 -76 -167 -144 -244 -65 -74
-149 -151 -192 -177 -151 -91 -252 -163 -434 -310 l-73 -58 0 87 1 88 72 47
c159 103 667 551 703 620 20 39 18 101 -5 129 l-19 24 -34 -19 c-43 -25 -85
-64 -91 -85 -3 -13 2 -16 28 -13 38 5 52 -17 33 -51 -33 -62 -225 -233 -413
-369 -125 -90 -276 -190 -280 -186 -2 2 -5 80 -7 174 l-3 171 130 -1 130 -1
75 36 c86 42 163 107 223 188 138 188 248 256 339 210z m-2763 -136 c24 -76
60 -175 81 -219 39 -84 80 -130 309 -348 l72 -69 -12 -73 c-6 -41 -15 -74 -18
-74 -3 0 -39 51 -79 113 -80 124 -137 189 -191 217 -38 19 -96 77 -124 122
-26 42 -137 382 -137 420 0 40 6 48 34 48 19 0 27 -18 65 -137z m4096 99 c80
-28 164 -79 207 -125 41 -43 78 -124 78 -169 l0 -38 -385 0 -385 0 0 23 c0 35
28 133 50 177 11 21 37 55 57 75 98 96 220 114 378 57z m-5360 -1 c97 -43 164
-133 190 -255 7 -34 10 -64 8 -68 -2 -5 -175 -8 -384 -8 l-379 0 0 39 c0 121
117 231 315 298 86 29 176 27 250 -6z m1954 -283 c92 -133 222 -219 395 -263
l91 -23 5 -238 c5 -254 7 -250 30 56 16 213 -2 190 148 190 145 0 279 23 361
62 28 14 51 22 51 19 0 -3 7 -87 15 -187 22 -276 29 -605 16 -699 -29 -201
-170 -362 -401 -457 -30 -12 -73 -37 -94 -55 -76 -63 -129 -63 -221 2 -78 55
-191 112 -259 129 -72 19 -85 27 -134 80 -76 83 -151 217 -212 378 l-32 87 66
338 c134 676 123 623 136 623 5 0 22 -19 39 -42z"/>
<path d="M3663 4780 c-137 -12 -240 -66 -398 -211 -33 -31 -67 -58 -75 -61
-24 -9 -168 -136 -181 -159 -8 -16 -8 -20 0 -14 7 3 26 11 43 15 28 8 24 4
-31 -46 -48 -44 -70 -74 -100 -138 -21 -44 -42 -94 -46 -111 -5 -26 -2 -23 27
20 76 116 250 257 423 344 l80 40 -55 0 -54 1 49 51 c28 28 97 87 154 132 108
84 164 110 264 123 39 5 47 9 32 15 -11 4 -24 7 -30 7 -5 -1 -52 -4 -102 -8z"/>
<path d="M3717 4670 c-26 -10 -71 -33 -100 -51 -62 -40 -162 -119 -150 -119 9
0 241 132 284 161 36 25 20 29 -34 9z"/>
<path d="M4700 4606 c0 -2 28 -25 63 -50 34 -26 90 -74 125 -108 60 -60 62
-61 51 -27 -25 75 -88 132 -188 169 -28 11 -51 18 -51 16z"/>
<path d="M4098 4348 c10 -34 16 -98 16 -179 l1 -125 28 34 27 35 0 -54 c0 -53
0 -53 17 -29 49 74 91 123 126 147 34 23 36 28 20 34 -32 13 -68 10 -105 -10
-42 -21 -48 -19 -48 19 0 36 -36 139 -57 162 -32 35 -41 22 -25 -34z"/>
<path d="M4584 4313 c-44 -26 -57 -36 -73 -56 -12 -15 -4 -14 55 9 38 14 84
31 102 37 17 6 32 14 32 19 0 15 -85 8 -116 -9z"/>
<path d="M5255 4193 c6 -5 36 -26 68 -47 32 -22 69 -52 82 -68 28 -33 32 -30
11 10 -17 33 -51 65 -91 85 -39 19 -83 32 -70 20z"/>
<path d="M5230 4066 c0 -3 13 -12 30 -21 16 -8 54 -36 85 -60 30 -25 55 -42
55 -39 0 18 -55 76 -88 93 -44 22 -82 35 -82 27z"/>
<path d="M4610 3956 c0 -103 0 -103 23 -99 13 3 41 -2 62 -11 49 -21 55 -20
55 4 0 29 17 25 57 -15 19 -19 37 -35 39 -35 2 0 4 20 4 45 l0 45 53 0 c59 -1
183 -15 212 -26 19 -7 19 -6 -1 15 -11 12 -47 33 -80 46 l-59 25 44 0 c43 0
44 0 26 20 -49 54 -178 89 -332 90 l-103 0 0 -104z"/>
<path d="M3042 4025 c-72 -16 -199 -74 -226 -103 -17 -19 -17 -20 2 -26 14 -5
23 -22 31 -65 14 -70 63 -134 117 -151 59 -20 290 4 367 37 20 9 36 17 34 19
-1 2 -41 -6 -87 -17 -47 -10 -126 -22 -176 -25 l-90 -7 -39 34 c-35 31 -74 97
-75 127 0 6 11 12 24 12 13 0 39 15 60 35 21 19 41 35 45 35 5 0 6 -22 3 -48
-3 -41 0 -53 21 -77 22 -26 31 -29 85 -30 83 0 115 24 122 89 l5 48 26 -29
c15 -15 41 -50 58 -77 27 -43 31 -46 31 -25 0 57 -31 131 -73 173 -75 74 -155
96 -265 71z m132 -81 c23 -22 20 -71 -3 -84 -47 -25 -91 0 -91 50 0 46 61 68
94 34z"/>
<path d="M5560 4017 c0 -4 13 -34 30 -65 47 -91 74 -212 67 -302 -6 -71 -32
-168 -57 -207 -9 -14 -10 -9 -6 27 3 25 8 72 10 105 l6 60 -19 -55 c-19 -58
-59 -142 -85 -175 -14 -19 -14 -17 -9 22 3 23 2 59 -2 79 l-7 38 -16 -34 c-21
-44 -73 -95 -120 -119 -52 -26 -159 -51 -221 -51 l-52 0 26 -44 c29 -49 50
-118 60 -191 l7 -50 -40 55 c-67 93 -159 147 -267 156 l-60 5 39 -15 c99 -38
182 -118 240 -233 30 -61 36 -159 12 -205 -8 -16 -13 -28 -10 -28 18 0 55 29
96 73 l46 51 -13 -64 c-7 -36 -12 -66 -10 -68 10 -10 165 224 165 250 0 3 -14
0 -30 -9 -19 -9 -41 -12 -57 -8 l-26 6 30 32 c17 18 46 59 64 91 19 34 41 61
53 64 46 12 195 93 228 125 39 36 69 116 89 231 20 119 -15 262 -90 368 -44
62 -71 94 -71 85z"/>
<path d="M3723 3712 c-28 -43 -72 -101 -98 -130 -26 -29 -46 -55 -43 -57 9 -9
175 111 235 170 66 64 89 109 27 53 -34 -32 -72 -57 -86 -58 -3 0 0 21 8 47 8
25 13 48 11 50 -2 1 -26 -32 -54 -75z"/>
<path d="M4947 3766 c-71 -26 -130 -84 -162 -160 -17 -41 -5 -48 18 -13 17 26
115 93 123 85 3 -3 0 -17 -7 -31 -29 -65 36 -127 132 -127 65 0 81 15 94 88 6
36 9 41 22 31 8 -7 23 -30 34 -51 13 -25 26 -38 39 -38 28 0 25 -20 -11 -63
-40 -48 -100 -79 -136 -71 -53 12 -133 44 -225 90 -64 32 -87 40 -75 26 43
-47 280 -142 356 -142 65 0 125 43 154 111 15 32 30 51 45 55 12 3 22 10 22
16 0 16 -101 109 -158 145 -97 62 -182 78 -265 49z m144 -76 c21 -12 25 -41 9
-71 -13 -24 -72 -26 -94 -3 -19 18 -19 14 -5 53 9 25 16 31 41 31 16 0 38 -5
49 -10z"/>
<path d="M4608 3710 c-26 -43 -36 -50 -62 -50 -17 0 -50 9 -74 20 -25 11 -40
14 -36 7 64 -108 176 -236 230 -262 43 -20 50 -16 31 22 -34 65 -38 103 -15
155 11 26 36 62 55 79 19 16 33 32 31 34 -9 9 -76 -16 -93 -35 -10 -11 -22
-20 -27 -20 -11 0 -10 57 2 81 8 13 7 19 0 19 -6 0 -25 -22 -42 -50z"/>
<path d="M3537 3705 c-12 -59 -27 -79 -27 -35 l-1 35 -14 -32 c-42 -98 -177
-247 -238 -264 -37 -10 -159 -2 -129 8 6 3 12 10 12 16 0 8 -23 12 -63 13 -61
2 -107 16 -107 33 0 4 23 12 52 17 66 12 72 28 11 32 -27 1 -54 9 -62 17 -12
12 -10 15 15 20 54 13 64 16 64 26 0 5 -20 9 -45 9 -55 0 -106 20 -141 55
l-26 26 7 -63 c6 -50 41 -184 82 -311 4 -12 -7 -30 -37 -57 -43 -39 -43 -39
-12 -30 17 4 36 11 42 15 19 12 10 -12 -15 -39 -14 -15 -48 -38 -77 -51 -42
-20 -48 -25 -27 -25 40 0 124 28 154 52 l27 21 -7 -24 c-4 -13 -10 -30 -12
-36 -8 -22 20 -15 103 26 192 93 421 319 554 546 l23 40 -34 -32 c-19 -18 -40
-33 -46 -33 -7 0 -13 15 -15 33 l-3 32 -8 -40z"/>
<path d="M3497 3236 c-71 -48 -138 -147 -153 -226 -6 -26 -4 -30 14 -30 17 0
24 11 36 48 21 74 53 130 103 183 52 55 51 60 0 25z"/>
<path d="M3147 3116 c-107 -129 -153 -211 -191 -342 -29 -98 -42 -251 -29
-323 8 -44 9 -43 31 70 43 214 98 381 174 533 41 82 45 98 15 62z"/>
<path d="M4996 2410 c4 -14 12 -65 19 -115 11 -86 12 -88 19 -47 10 52 1 106
-25 152 -14 25 -18 28 -13 10z"/>
<path d="M3545 2380 c-7 -12 2 -30 16 -30 5 0 9 9 9 20 0 21 -15 27 -25 10z"/>
<path d="M3470 2346 c0 -9 7 -16 16 -16 17 0 14 22 -4 28 -7 2 -12 -3 -12 -12z"/>
<path d="M3392 2336 c1 -10 8 -17 13 -17 15 1 12 24 -3 29 -9 3 -13 -2 -10
-12z"/>
<path d="M3055 2330 c-11 -17 5 -32 21 -19 7 6 11 15 8 20 -7 12 -21 11 -29
-1z"/>
<path d="M3140 2315 c0 -8 7 -15 15 -15 8 0 15 7 15 15 0 8 -7 15 -15 15 -8 0
-15 -7 -15 -15z"/>
<path d="M3225 2320 c-4 -6 -3 -16 3 -22 6 -6 12 -6 17 2 4 6 3 16 -3 22 -6 6
-12 6 -17 -2z"/>
<path d="M3310 2315 c0 -8 7 -15 15 -15 8 0 15 7 15 15 0 8 -7 15 -15 15 -8 0
-15 -7 -15 -15z"/>
<path d="M3635 2260 c-3 -6 1 -13 10 -16 19 -8 30 0 20 15 -8 14 -22 14 -30 1z"/>
<path d="M3560 2215 c0 -8 7 -15 15 -15 8 0 15 7 15 15 0 8 -7 15 -15 15 -8 0
-15 -7 -15 -15z"/>
<path d="M4460 2190 c0 -13 5 -20 13 -17 6 2 12 10 12 17 0 7 -6 15 -12 18 -8
2 -13 -5 -13 -18z"/>
<path d="M3472 2188 c6 -18 28 -21 28 -4 0 9 -7 16 -16 16 -9 0 -14 -5 -12
-12z"/>
<path d="M4930 2185 c0 -8 7 -15 15 -15 8 0 15 7 15 15 0 8 -7 15 -15 15 -8 0
-15 -7 -15 -15z"/>
<path d="M3100 2175 c0 -8 7 -15 15 -15 8 0 15 7 15 15 0 8 -7 15 -15 15 -8 0
-15 -7 -15 -15z"/>
<path d="M3376 2183 c-12 -12 -6 -33 9 -33 8 0 15 6 15 14 0 17 -14 28 -24 19z"/>
<path d="M4552 2176 c1 -10 8 -17 13 -17 15 1 12 24 -3 29 -9 3 -13 -2 -10
-12z"/>
<path d="M3180 2166 c0 -9 7 -16 16 -16 17 0 14 22 -4 28 -7 2 -12 -3 -12 -12z"/>
<path d="M3260 2165 c0 -8 7 -15 15 -15 8 0 15 7 15 15 0 8 -7 15 -15 15 -8 0
-15 -7 -15 -15z"/>
<path d="M4652 2168 c6 -18 28 -21 28 -4 0 9 -7 16 -16 16 -9 0 -14 -5 -12
-12z"/>
<path d="M4735 2169 c-10 -15 1 -23 20 -15 9 3 13 10 10 16 -8 13 -22 13 -30
-1z"/>
<path d="M4840 2165 c0 -8 7 -15 15 -15 8 0 15 7 15 15 0 8 -7 15 -15 15 -8 0
-15 -7 -15 -15z"/>
<path d="M4380 2075 c0 -8 7 -15 15 -15 8 0 15 7 15 15 0 8 -7 15 -15 15 -8 0
-15 -7 -15 -15z"/>
<path d="M4902 2064 c4 -21 22 -23 26 -1 2 10 -3 17 -13 17 -10 0 -15 -6 -13
-16z"/>
<path d="M4490 2040 c0 -13 5 -20 13 -17 6 2 12 10 12 17 0 7 -6 15 -12 18 -8
2 -13 -5 -13 -18z"/>
<path d="M4595 2040 c-4 -6 -3 -16 3 -22 6 -6 12 -6 17 2 4 6 3 16 -3 22 -6 6
-12 6 -17 -2z"/>
<path d="M4705 2040 c-4 -6 -3 -16 3 -22 6 -6 12 -6 17 2 4 6 3 16 -3 22 -6 6
-12 6 -17 -2z"/>
<path d="M4807 2043 c-12 -11 -8 -23 8 -23 8 0 15 7 15 15 0 16 -12 20 -23 8z"/>
</g>
</svg>
